<svg width="24" height="24" viewBox="0 0 24 24" fill="none" xmlns="http://www.w3.org/2000/svg">
<path d="M5.11233 19.0084H8.74272C8.79607 19.8191 9.16234 20.5795 9.76715 21.1351C10.372 21.6908 11.17 22 11.999 22C12.8281 22 13.6261 21.6908 14.2309 21.1351C14.8357 20.5795 15.202 19.8191 15.2553 19.0084H18.8857C19.2298 19.0085 19.5666 18.911 19.8553 18.7275C20.1439 18.5441 20.3722 18.2826 20.5124 17.9747C20.6526 17.6668 20.6987 17.3257 20.6452 16.9926C20.5916 16.6596 20.4408 16.3489 20.2108 16.0981L18.6131 14.3537V11.163C18.61 9.87794 18.2177 8.62271 17.486 7.55628C16.7543 6.48985 15.716 5.66019 14.5027 5.1724V4.52543C14.5107 3.89443 14.2746 3.28386 13.8419 2.81646C13.4092 2.34906 12.812 2.0595 12.1703 2.00598C11.8269 1.98232 11.4822 2.02901 11.1583 2.14306C10.8343 2.25711 10.5381 2.43603 10.2886 2.66841C10.0381 2.89821 9.83828 3.17585 9.70147 3.48422C9.56465 3.79259 9.49375 4.12515 9.49314 4.46139V5.18123C8.28173 5.66991 7.24523 6.49929 6.51448 7.56469C5.78372 8.6301 5.39148 9.88375 5.38726 11.1674V14.3515L3.78953 16.0959C3.55956 16.3467 3.40869 16.6574 3.35517 16.9904C3.30164 17.3235 3.34777 17.6646 3.48795 17.9725C3.62814 18.2804 3.85638 18.5419 4.14507 18.7253C4.43375 18.9088 4.7705 19.0063 5.11459 19.0062L5.11233 19.0084ZM11.999 21.1039C11.4111 21.1033 10.8444 20.8885 10.4091 20.5012C9.97386 20.1139 9.70119 19.5818 9.64413 19.0084H14.3539C14.2969 19.5818 14.0242 20.1139 13.589 20.5012C13.1537 20.8885 12.587 21.1033 11.999 21.1039ZM4.45882 16.6877L6.17148 14.8174C6.24579 14.7361 6.28673 14.6307 6.28641 14.5215V11.1674C6.28931 10.0111 6.65676 8.88388 7.33848 7.94001C8.02019 6.99614 8.98288 6.28171 10.0948 5.89445C10.1824 5.86396 10.2581 5.80771 10.3118 5.7334C10.3654 5.65909 10.3943 5.57035 10.3945 5.47933V4.45477C10.3951 4.03798 10.5644 3.63843 10.8651 3.34372C11.1659 3.04901 11.5737 2.88318 11.999 2.8826H12.1095C12.5232 2.92096 12.9068 3.11112 13.1835 3.41497C13.4601 3.71881 13.6094 4.11389 13.6013 4.52101V5.4727C13.6015 5.56373 13.6304 5.65247 13.684 5.72678C13.7377 5.80108 13.8135 5.85733 13.901 5.88783C15.0126 6.27428 15.9751 6.9879 16.6569 7.93101C17.3386 8.87413 17.7062 10.0006 17.7094 11.1564V14.5215C17.7091 14.6307 17.75 14.7361 17.8243 14.8174L19.537 16.6877C19.6507 16.8114 19.7254 16.9648 19.752 17.1293C19.7786 17.2938 19.7559 17.4623 19.6868 17.6144C19.6176 17.7665 19.5049 17.8957 19.3624 17.9864C19.2198 18.077 19.0534 18.1252 18.8835 18.1251H5.11233C4.94238 18.1252 4.77604 18.077 4.63347 17.9864C4.4909 17.8957 4.37821 17.7665 4.30905 17.6144C4.23989 17.4623 4.21723 17.2938 4.24381 17.1293C4.27039 16.9648 4.34508 16.8114 4.45882 16.6877Z" fill="#222222"/>
</svg>
