<svg width="24" height="24" viewBox="0 0 24 24" fill="none" xmlns="http://www.w3.org/2000/svg">
<path d="M14.6475 9.67218C15.5824 10.5919 16.2185 12.0107 16.2744 13.5853L16.1279 13.7103C15.7884 13.5415 15.4375 13.4827 15.0566 13.4827C13.1415 13.483 11.7988 15.269 11.7988 17.345C11.7988 17.7402 11.8341 18.1146 11.9277 18.4827H7.72949C7.56546 18.4827 7.28125 18.2729 7.28125 17.8616V13.8968C7.28125 12.1602 7.93128 10.6479 8.90137 9.68488C9.66313 10.4261 10.6845 10.8616 11.7812 10.8616C12.9032 10.8616 13.8599 10.4073 14.6475 9.67218Z" stroke="#222222"/>
<path d="M20.6608 18.8104C20.4022 18.8104 20.1436 18.8966 19.9712 18.9828L16.9539 16.9138L19.9712 14.8449C20.2298 14.9311 20.4022 15.0173 20.747 15.0173C21.6091 15.0173 22.2987 14.4138 22.385 13.638C22.4712 12.6897 21.6953 11.9138 20.747 11.9138C19.885 11.9138 19.1091 12.6035 19.1091 13.4655C19.1091 13.5518 19.1091 13.638 19.1091 13.638L16.0918 15.7069C15.8332 15.4483 15.4022 15.3621 15.0574 15.3621C14.1953 15.3621 13.4194 16.0518 13.4194 16.9138C13.4194 17.7759 14.1091 18.4655 15.0574 18.4655C15.4884 18.4655 15.8332 18.2931 16.0918 18.1207L19.1091 20.1897C19.1091 20.2759 19.1091 20.3621 19.1091 20.4483C19.1091 21.3104 19.7987 22 20.747 22C21.6091 22 22.385 21.3104 22.385 20.4483C22.2987 19.5 21.5229 18.8104 20.6608 18.8104Z" fill="#222222"/>
<path d="M11.8672 2.5C12.603 2.5 13.1865 2.69293 13.5898 3.10449C13.9946 3.51752 14.2988 4.23249 14.2988 5.44824C14.2988 7.15099 13.1533 8.39648 11.8672 8.39648C10.5626 8.39629 9.35999 7.13294 9.43555 5.4707L9.43652 5.45996V5.44824C9.43653 4.18454 9.74269 3.4741 10.1416 3.0752C10.5398 2.67718 11.1198 2.50005 11.8672 2.5Z" stroke="#222222"/>
<path d="M6.34961 4.3103C6.72577 4.3103 7.08372 4.39044 7.375 4.53198C7.35274 4.60277 7.3299 4.68115 7.30859 4.76636C7.22347 5.10683 7.15447 5.56794 7.20605 6.08276L7.23633 6.3064C7.29002 6.83652 7.45529 7.32734 7.60254 7.67847C7.63948 7.76655 7.6761 7.84699 7.70996 7.9187C7.39282 8.21821 7.18587 8.47988 6.8623 8.86304C6.83997 8.86634 6.81569 8.87134 6.79004 8.87476C6.64047 8.89469 6.4488 8.91382 6.26367 8.91382C6.26169 8.91376 6.25217 8.91331 6.23438 8.91187C6.21371 8.91017 6.18549 8.90685 6.15137 8.9021C6.08306 8.89259 5.99339 8.87687 5.89062 8.85034C5.68327 8.79679 5.43404 8.70469 5.19922 8.55249C4.75655 8.26549 4.31297 7.73717 4.34961 6.67261V6.65503C4.34963 5.6599 4.60744 5.09851 4.93164 4.78198C5.25825 4.46315 5.73688 4.31038 6.34961 4.3103Z" stroke="#222222"/>
<path d="M3.58252 9.90936C4.20336 10.4285 4.91419 10.771 5.7085 10.9357C5.32264 11.8772 5.07473 12.9242 5.07471 13.9826V17.1037H2.55713C2.31613 17.1037 2.10904 16.8964 2.10889 16.6555V13.2932C2.10889 11.966 2.67437 10.7629 3.58252 9.90936Z" stroke="#222222"/>
</svg>
